<?xml version="1.0" encoding="UTF-8" standalone="no"?>
<!DOCTYPE svg PUBLIC "-//W3C//DTD SVG 1.1//EN"
 "http://www.w3.org/Graphics/SVG/1.1/DTD/svg11.dtd">
<!-- Generated by graphviz version 2.40.1 (20161225.0304)
 -->
<!-- Title: workflow Pages: 1 -->
<svg width="999pt" height="365pt"
 viewBox="0.00 0.00 998.68 365.35" xmlns="http://www.w3.org/2000/svg" xmlns:xlink="http://www.w3.org/1999/xlink">
<g id="graph0" class="graph" transform="scale(1 1) rotate(0) translate(4 361.3491)">
<title>workflow</title>
<polygon fill="#ffffff" stroke="transparent" points="-4,4 -4,-361.3491 994.6754,-361.3491 994.6754,4 -4,4"/>
<!-- place_c2a6b03f190dfb2b4aa91f8af8d477a9bc3401dc -->
<g id="node1" class="node">
<title>place_c2a6b03f190dfb2b4aa91f8af8d477a9bc3401dc</title>
<ellipse fill="#add8e6" stroke="#333333" cx="36" cy="-141" rx="36" ry="36"/>
<text text-anchor="middle" x="36" y="-138.9746" font-family="Arial" font-size="9.00" fill="#000000">new</text>
</g>
<!-- place_12625ba3c14eddfc43fddb76cbc069528cec8b7f -->
<g id="node2" class="node">
<title>place_12625ba3c14eddfc43fddb76cbc069528cec8b7f</title>
<ellipse fill="none" stroke="#333333" cx="195.5298" cy="-202" rx="36" ry="36"/>
<text text-anchor="middle" x="195.5298" y="-199.9746" font-family="Arial" font-size="9.00" fill="#000000">waiting</text>
</g>
<!-- place_c2a6b03f190dfb2b4aa91f8af8d477a9bc3401dc&#45;&gt;place_12625ba3c14eddfc43fddb76cbc069528cec8b7f -->
<g id="edge1" class="edge">
<title>place_c2a6b03f190dfb2b4aa91f8af8d477a9bc3401dc&#45;&gt;place_12625ba3c14eddfc43fddb76cbc069528cec8b7f</title>
<path fill="none" stroke="#333333" d="M69.8322,-153.9365C95.3186,-163.6819 130.2958,-177.0562 156.8837,-187.2227"/>
<polygon fill="#333333" stroke="#333333" points="156.4511,-188.9309 161.7464,-189.0821 157.7012,-185.6617 156.4511,-188.9309"/>
<text text-anchor="middle" x="115.2686" y="-183.1491" font-family="Arial" font-size="9.00" fill="#000000">waiting</text>
</g>
<!-- place_21c50805b553b7a40e48394a5d77d442587ddee2 -->
<g id="node3" class="node">
<title>place_21c50805b553b7a40e48394a5d77d442587ddee2</title>
<ellipse fill="none" stroke="#333333" cx="337.043" cy="-206" rx="36" ry="36"/>
<text text-anchor="middle" x="337.043" y="-203.9746" font-family="Arial" font-size="9.00" fill="#000000">created</text>
</g>
<!-- place_c2a6b03f190dfb2b4aa91f8af8d477a9bc3401dc&#45;&gt;place_21c50805b553b7a40e48394a5d77d442587ddee2 -->
<g id="edge2" class="edge">
<title>place_c2a6b03f190dfb2b4aa91f8af8d477a9bc3401dc&#45;&gt;place_21c50805b553b7a40e48394a5d77d442587ddee2</title>
<path fill="none" stroke="#333333" d="M45.223,-175.9673C59.9721,-223.5747 94.0065,-306.3667 158.5371,-337 188.2424,-351.1014 202.8948,-351.2636 232.5225,-337 272.6257,-317.6933 302.1229,-274.6826 319.3695,-243.1914"/>
<polygon fill="#333333" stroke="#333333" points="320.9945,-243.8649 321.825,-238.633 317.9131,-242.205 320.9945,-243.8649"/>
<text text-anchor="middle" x="195.5298" y="-350.1491" font-family="Arial" font-size="9.00" fill="#000000">create</text>
</g>
<!-- place_4b376c0339d05a52537b37f4b6ddf747b5391c32 -->
<g id="node4" class="node">
<title>place_4b376c0339d05a52537b37f4b6ddf747b5391c32</title>
<ellipse fill="none" stroke="#ff0000" cx="337.043" cy="-107" rx="36" ry="36"/>
<ellipse fill="none" stroke="#ff0000" cx="337.043" cy="-107" rx="40" ry="40"/>
<text text-anchor="middle" x="337.043" y="-104.9746" font-family="Arial" font-size="9.00" fill="#000000">declined</text>
</g>
<!-- place_c2a6b03f190dfb2b4aa91f8af8d477a9bc3401dc&#45;&gt;place_4b376c0339d05a52537b37f4b6ddf747b5391c32 -->
<g id="edge3" class="edge">
<title>place_c2a6b03f190dfb2b4aa91f8af8d477a9bc3401dc&#45;&gt;place_4b376c0339d05a52537b37f4b6ddf747b5391c32</title>
<path fill="none" stroke="#333333" d="M62.0263,-115.3293C85.1744,-94.4328 121.0757,-66.5241 158.5371,-54.6509 189.8828,-44.716 200.5223,-47.0852 232.5225,-54.6509 255.6457,-60.1178 279.4798,-71.5335 298.5383,-82.3132"/>
<polygon fill="#333333" stroke="#333333" points="298.0703,-84.0626 303.2775,-85.0362 299.814,-81.0278 298.0703,-84.0626"/>
<text text-anchor="middle" x="195.5298" y="-58.1491" font-family="Arial" font-size="9.00" fill="#000000">decline</text>
</g>
<!-- place_140e7351379dcf91c8a2461ed5cf53e1b9d1414b -->
<g id="node9" class="node">
<title>place_140e7351379dcf91c8a2461ed5cf53e1b9d1414b</title>
<ellipse fill="none" stroke="#ff0000" cx="950.6754" cy="-100" rx="36" ry="36"/>
<ellipse fill="none" stroke="#ff0000" cx="950.6754" cy="-100" rx="40" ry="40"/>
<text text-anchor="middle" x="950.6754" y="-97.9746" font-family="Arial" font-size="9.00" fill="#000000">canceled</text>
</g>
<!-- place_c2a6b03f190dfb2b4aa91f8af8d477a9bc3401dc&#45;&gt;place_140e7351379dcf91c8a2461ed5cf53e1b9d1414b -->
<g id="edge4" class="edge">
<title>place_c2a6b03f190dfb2b4aa91f8af8d477a9bc3401dc&#45;&gt;place_140e7351379dcf91c8a2461ed5cf53e1b9d1414b</title>
<path fill="none" stroke="#333333" d="M52.0332,-108.7188C61.4323,-92.109 74.5036,-72.3864 90,-58 129.2225,-21.587 142.0106,0 195.5298,0 195.5298,0 195.5298,0 776.128,0 831.6698,0 885.5657,-38.5928 918.4256,-67.8283"/>
<polygon fill="#333333" stroke="#333333" points="917.4413,-69.2971 922.3273,-71.344 919.7842,-66.6969 917.4413,-69.2971"/>
<text text-anchor="middle" x="465.5533" y="-3.1491" font-family="Arial" font-size="9.00" fill="#000000">cancel</text>
</g>
<!-- place_8b7c4985d61c3ec08e893b5ad433fe9613d66c7f -->
<g id="node10" class="node">
<title>place_8b7c4985d61c3ec08e893b5ad433fe9613d66c7f</title>
<ellipse fill="none" stroke="#333333" cx="195.5298" cy="-292" rx="36" ry="36"/>
<text text-anchor="middle" x="195.5298" y="-289.9746" font-family="Arial" font-size="9.00" fill="#000000">authorized</text>
</g>
<!-- place_c2a6b03f190dfb2b4aa91f8af8d477a9bc3401dc&#45;&gt;place_8b7c4985d61c3ec08e893b5ad433fe9613d66c7f -->
<g id="edge5" class="edge">
<title>place_c2a6b03f190dfb2b4aa91f8af8d477a9bc3401dc&#45;&gt;place_8b7c4985d61c3ec08e893b5ad433fe9613d66c7f</title>
<path fill="none" stroke="#333333" d="M61.6779,-166.4872C70.593,-175.26 80.6888,-185.1104 90,-194 115.0263,-217.893 143.8334,-244.5917 165.0205,-264.0807"/>
<polygon fill="#333333" stroke="#333333" points="164.0199,-265.538 168.8853,-267.6335 166.3886,-262.9613 164.0199,-265.538"/>
<text text-anchor="middle" x="115.2686" y="-242.1491" font-family="Arial" font-size="9.00" fill="#000000">authorize</text>
</g>
<!-- place_34a6f77fad4976edae0218850bdf09eb23bfdf10 -->
<g id="node11" class="node">
<title>place_34a6f77fad4976edae0218850bdf09eb23bfdf10</title>
<ellipse fill="none" stroke="#333333" cx="195.5298" cy="-111" rx="36.9854" ry="36.9854"/>
<text text-anchor="middle" x="195.5298" y="-108.9746" font-family="Arial" font-size="9.00" fill="#000000">pre_approved</text>
</g>
<!-- place_c2a6b03f190dfb2b4aa91f8af8d477a9bc3401dc&#45;&gt;place_34a6f77fad4976edae0218850bdf09eb23bfdf10 -->
<g id="edge6" class="edge">
<title>place_c2a6b03f190dfb2b4aa91f8af8d477a9bc3401dc&#45;&gt;place_34a6f77fad4976edae0218850bdf09eb23bfdf10</title>
<path fill="none" stroke="#333333" d="M71.4048,-134.342C95.8451,-129.746 128.4325,-123.6178 154.0845,-118.7939"/>
<polygon fill="#333333" stroke="#333333" points="154.5275,-120.4914 159.1179,-117.8474 153.8806,-117.0516 154.5275,-120.4914"/>
<text text-anchor="middle" x="115.2686" y="-133.1491" font-family="Arial" font-size="9.00" fill="#000000">pre_approve</text>
</g>
<!-- place_12625ba3c14eddfc43fddb76cbc069528cec8b7f&#45;&gt;place_21c50805b553b7a40e48394a5d77d442587ddee2 -->
<g id="edge7" class="edge">
<title>place_12625ba3c14eddfc43fddb76cbc069528cec8b7f&#45;&gt;place_21c50805b553b7a40e48394a5d77d442587ddee2</title>
<path fill="none" stroke="#333333" d="M231.6057,-203.0197C251.2333,-203.5745 275.5911,-204.263 295.9488,-204.8384"/>
<polygon fill="#333333" stroke="#333333" points="295.9855,-206.5901 301.033,-204.9821 296.0845,-203.0915 295.9855,-206.5901"/>
<text text-anchor="middle" x="264.7828" y="-207.1491" font-family="Arial" font-size="9.00" fill="#000000">create</text>
</g>
<!-- place_12625ba3c14eddfc43fddb76cbc069528cec8b7f&#45;&gt;place_4b376c0339d05a52537b37f4b6ddf747b5391c32 -->
<g id="edge8" class="edge">
<title>place_12625ba3c14eddfc43fddb76cbc069528cec8b7f&#45;&gt;place_4b376c0339d05a52537b37f4b6ddf747b5391c32</title>
<path fill="none" stroke="#333333" d="M218.4986,-173.9138C230.1005,-160.2495 243.2307,-145.6981 250.5225,-140.6509 263.3812,-131.7504 278.922,-124.7626 293.2645,-119.5163"/>
<polygon fill="#333333" stroke="#333333" points="293.9531,-121.1288 298.0769,-117.8036 292.7795,-117.8314 293.9531,-121.1288"/>
<text text-anchor="middle" x="264.7828" y="-143.1491" font-family="Arial" font-size="9.00" fill="#000000">decline</text>
</g>
<!-- place_116ebf4d0492d37a8db45951524bf19ae2aa1619 -->
<g id="node5" class="node">
<title>place_116ebf4d0492d37a8db45951524bf19ae2aa1619</title>
<ellipse fill="none" stroke="#333333" cx="465.5533" cy="-206" rx="36" ry="36"/>
<text text-anchor="middle" x="465.5533" y="-203.9746" font-family="Arial" font-size="9.00" fill="#000000">shipped</text>
</g>
<!-- place_21c50805b553b7a40e48394a5d77d442587ddee2&#45;&gt;place_116ebf4d0492d37a8db45951524bf19ae2aa1619 -->
<g id="edge12" class="edge">
<title>place_21c50805b553b7a40e48394a5d77d442587ddee2&#45;&gt;place_116ebf4d0492d37a8db45951524bf19ae2aa1619</title>
<path fill="none" stroke="#333333" d="M373.1823,-206C389.0601,-206 407.7909,-206 424.2207,-206"/>
<polygon fill="#333333" stroke="#333333" points="424.2401,-207.7501 429.24,-206 424.24,-204.2501 424.2401,-207.7501"/>
<text text-anchor="middle" x="403.2982" y="-209.1491" font-family="Arial" font-size="9.00" fill="#000000">ship</text>
</g>
<!-- place_21c50805b553b7a40e48394a5d77d442587ddee2&#45;&gt;place_140e7351379dcf91c8a2461ed5cf53e1b9d1414b -->
<g id="edge13" class="edge">
<title>place_21c50805b553b7a40e48394a5d77d442587ddee2&#45;&gt;place_140e7351379dcf91c8a2461ed5cf53e1b9d1414b</title>
<path fill="none" stroke="#333333" d="M359.9922,-178.2354C394.8296,-136.3906 457.8465,-62 465.5533,-62 465.5533,-62 465.5533,-62 776.128,-62 821.7973,-62 872.6814,-74.5736 907.6695,-85.2555"/>
<polygon fill="#333333" stroke="#333333" points="907.42,-87.0101 912.7139,-86.8161 908.4545,-83.6664 907.42,-87.0101"/>
<text text-anchor="middle" x="605.5806" y="-65.1491" font-family="Arial" font-size="9.00" fill="#000000">cancel</text>
</g>
<!-- place_e1b437280aaad15baec6cb3d2c20b94ba8cebead -->
<g id="node6" class="node">
<title>place_e1b437280aaad15baec6cb3d2c20b94ba8cebead</title>
<ellipse fill="none" stroke="#333333" cx="605.5806" cy="-175" rx="36" ry="36"/>
<text text-anchor="middle" x="605.5806" y="-172.9746" font-family="Arial" font-size="9.00" fill="#000000">paid_out</text>
</g>
<!-- place_116ebf4d0492d37a8db45951524bf19ae2aa1619&#45;&gt;place_e1b437280aaad15baec6cb3d2c20b94ba8cebead -->
<g id="edge14" class="edge">
<title>place_116ebf4d0492d37a8db45951524bf19ae2aa1619&#45;&gt;place_e1b437280aaad15baec6cb3d2c20b94ba8cebead</title>
<path fill="none" stroke="#333333" d="M500.8881,-198.1774C520.4568,-193.8452 544.861,-188.4424 565.1837,-183.9433"/>
<polygon fill="#333333" stroke="#333333" points="565.7536,-185.6096 570.2571,-182.8201 564.997,-182.1923 565.7536,-185.6096"/>
<text text-anchor="middle" x="535.567" y="-196.1491" font-family="Arial" font-size="9.00" fill="#000000">pay_out</text>
</g>
<!-- place_5d6200f8cf98af475edcac2c97f966ad156ed51f -->
<g id="node7" class="node">
<title>place_5d6200f8cf98af475edcac2c97f966ad156ed51f</title>
<ellipse fill="none" stroke="#333333" cx="776.128" cy="-210" rx="36" ry="36"/>
<text text-anchor="middle" x="776.128" y="-207.9746" font-family="Arial" font-size="9.00" fill="#000000">late</text>
</g>
<!-- place_116ebf4d0492d37a8db45951524bf19ae2aa1619&#45;&gt;place_5d6200f8cf98af475edcac2c97f966ad156ed51f -->
<g id="edge15" class="edge">
<title>place_116ebf4d0492d37a8db45951524bf19ae2aa1619&#45;&gt;place_5d6200f8cf98af475edcac2c97f966ad156ed51f</title>
<path fill="none" stroke="#333333" d="M501.0624,-211.9768C521.1124,-215.0499 546.6708,-218.4653 569.5806,-220 626.9475,-223.8429 693.3727,-218.9641 735.0716,-214.772"/>
<polygon fill="#333333" stroke="#333333" points="735.4878,-216.4886 740.2836,-214.2386 735.1314,-213.0068 735.4878,-216.4886"/>
<text text-anchor="middle" x="605.5806" y="-224.1491" font-family="Arial" font-size="9.00" fill="#000000">late</text>
</g>
<!-- place_0737c22d3bfae812339732d14d8c7dbd6dc4e09c -->
<g id="node8" class="node">
<title>place_0737c22d3bfae812339732d14d8c7dbd6dc4e09c</title>
<ellipse fill="none" stroke="#ff0000" cx="950.6754" cy="-282" rx="36" ry="36"/>
<ellipse fill="none" stroke="#ff0000" cx="950.6754" cy="-282" rx="40" ry="40"/>
<text text-anchor="middle" x="950.6754" y="-279.9746" font-family="Arial" font-size="9.00" fill="#000000">complete</text>
</g>
<!-- place_116ebf4d0492d37a8db45951524bf19ae2aa1619&#45;&gt;place_0737c22d3bfae812339732d14d8c7dbd6dc4e09c -->
<g id="edge16" class="edge">
<title>place_116ebf4d0492d37a8db45951524bf19ae2aa1619&#45;&gt;place_0737c22d3bfae812339732d14d8c7dbd6dc4e09c</title>
<path fill="none" stroke="#333333" d="M498.3162,-221.6489C505.2409,-224.6478 512.5683,-227.5974 519.5533,-230 652.5744,-275.7556 689.5354,-286.3188 830.128,-291 857.9114,-291.9251 864.9588,-293.1376 892.6754,-291 896.9837,-290.6677 901.4563,-290.1986 905.9203,-289.647"/>
<polygon fill="#333333" stroke="#333333" points="906.4151,-291.3474 911.1465,-288.9649 905.9621,-287.8768 906.4151,-291.3474"/>
<text text-anchor="middle" x="690.8543" y="-286.1491" font-family="Arial" font-size="9.00" fill="#000000">complete</text>
</g>
<!-- place_116ebf4d0492d37a8db45951524bf19ae2aa1619&#45;&gt;place_140e7351379dcf91c8a2461ed5cf53e1b9d1414b -->
<g id="edge17" class="edge">
<title>place_116ebf4d0492d37a8db45951524bf19ae2aa1619&#45;&gt;place_140e7351379dcf91c8a2461ed5cf53e1b9d1414b</title>
<path fill="none" stroke="#333333" d="M491.3493,-180.7728C511.0482,-163.2093 539.7977,-141.0324 569.5806,-130 684.7507,-87.3378 832.5573,-90.6784 905.6319,-95.8061"/>
<polygon fill="#333333" stroke="#333333" points="905.6492,-97.5618 910.7626,-96.1777 905.9021,-94.071 905.6492,-97.5618"/>
<text text-anchor="middle" x="690.8543" y="-109.1491" font-family="Arial" font-size="9.00" fill="#000000">cancel_shipped</text>
</g>
<!-- place_e1b437280aaad15baec6cb3d2c20b94ba8cebead&#45;&gt;place_5d6200f8cf98af475edcac2c97f966ad156ed51f -->
<g id="edge18" class="edge">
<title>place_e1b437280aaad15baec6cb3d2c20b94ba8cebead&#45;&gt;place_5d6200f8cf98af475edcac2c97f966ad156ed51f</title>
<path fill="none" stroke="#333333" d="M640.9182,-182.252C668.5876,-187.9304 707.0873,-195.8314 735.9308,-201.7507"/>
<polygon fill="#333333" stroke="#333333" points="735.586,-203.4663 740.8357,-202.7573 736.2896,-200.0378 735.586,-203.4663"/>
<text text-anchor="middle" x="690.8543" y="-201.1491" font-family="Arial" font-size="9.00" fill="#000000">late</text>
</g>
<!-- place_e1b437280aaad15baec6cb3d2c20b94ba8cebead&#45;&gt;place_0737c22d3bfae812339732d14d8c7dbd6dc4e09c -->
<g id="edge19" class="edge">
<title>place_e1b437280aaad15baec6cb3d2c20b94ba8cebead&#45;&gt;place_0737c22d3bfae812339732d14d8c7dbd6dc4e09c</title>
<path fill="none" stroke="#333333" d="M634.2086,-197.1377C660.2762,-215.998 700.619,-242.0427 740.128,-255 795.1453,-273.0434 861.9358,-279.1092 905.326,-281.1031"/>
<polygon fill="#333333" stroke="#333333" points="905.4282,-282.8591 910.4991,-281.3266 905.5793,-279.3623 905.4282,-282.8591"/>
<text text-anchor="middle" x="776.128" y="-274.1491" font-family="Arial" font-size="9.00" fill="#000000">complete</text>
</g>
<!-- place_e1b437280aaad15baec6cb3d2c20b94ba8cebead&#45;&gt;place_140e7351379dcf91c8a2461ed5cf53e1b9d1414b -->
<g id="edge20" class="edge">
<title>place_e1b437280aaad15baec6cb3d2c20b94ba8cebead&#45;&gt;place_140e7351379dcf91c8a2461ed5cf53e1b9d1414b</title>
<path fill="none" stroke="#333333" d="M641.0077,-167.7993C695.2826,-156.6941 802.2349,-134.5193 892.6754,-114 897.2007,-112.9733 901.9183,-111.8772 906.6222,-110.7675"/>
<polygon fill="#333333" stroke="#333333" points="907.2502,-112.4172 911.7115,-109.5606 906.4426,-109.0116 907.2502,-112.4172"/>
<text text-anchor="middle" x="776.128" y="-150.1491" font-family="Arial" font-size="9.00" fill="#000000">cancel_shipped</text>
</g>
<!-- place_5d6200f8cf98af475edcac2c97f966ad156ed51f&#45;&gt;place_0737c22d3bfae812339732d14d8c7dbd6dc4e09c -->
<g id="edge21" class="edge">
<title>place_5d6200f8cf98af475edcac2c97f966ad156ed51f&#45;&gt;place_0737c22d3bfae812339732d14d8c7dbd6dc4e09c</title>
<path fill="none" stroke="#333333" d="M809.5703,-223.5763C832.8865,-233.0656 864.7053,-246.0622 892.6754,-257.6509 897.8507,-259.7952 903.2809,-262.0578 908.6558,-264.3052"/>
<polygon fill="#333333" stroke="#333333" points="908.2796,-266.0448 913.5676,-266.361 909.631,-262.8162 908.2796,-266.0448"/>
<text text-anchor="middle" x="861.4017" y="-260.1491" font-family="Arial" font-size="9.00" fill="#000000">complete</text>
</g>
<!-- place_5d6200f8cf98af475edcac2c97f966ad156ed51f&#45;&gt;place_140e7351379dcf91c8a2461ed5cf53e1b9d1414b -->
<g id="edge22" class="edge">
<title>place_5d6200f8cf98af475edcac2c97f966ad156ed51f&#45;&gt;place_140e7351379dcf91c8a2461ed5cf53e1b9d1414b</title>
<path fill="none" stroke="#333333" d="M810.6014,-199.2856C834.8241,-190.8142 867.3014,-177.5013 892.6754,-160 902.9021,-152.9463 912.7852,-143.886 921.4076,-134.955"/>
<polygon fill="#333333" stroke="#333333" points="922.8529,-135.974 925.023,-131.1415 920.3129,-133.566 922.8529,-135.974"/>
<text text-anchor="middle" x="861.4017" y="-194.1491" font-family="Arial" font-size="9.00" fill="#000000">cancel_shipped</text>
</g>
<!-- place_8b7c4985d61c3ec08e893b5ad433fe9613d66c7f&#45;&gt;place_21c50805b553b7a40e48394a5d77d442587ddee2 -->
<g id="edge9" class="edge">
<title>place_8b7c4985d61c3ec08e893b5ad433fe9613d66c7f&#45;&gt;place_21c50805b553b7a40e48394a5d77d442587ddee2</title>
<path fill="none" stroke="#333333" d="M226.5855,-273.1269C248.7055,-259.6843 278.4792,-241.5903 301.5412,-227.5751"/>
<polygon fill="#333333" stroke="#333333" points="302.6958,-228.9213 306.0598,-224.829 300.8781,-225.9303 302.6958,-228.9213"/>
<text text-anchor="middle" x="264.7828" y="-259.1491" font-family="Arial" font-size="9.00" fill="#000000">create</text>
</g>
<!-- place_34a6f77fad4976edae0218850bdf09eb23bfdf10&#45;&gt;place_21c50805b553b7a40e48394a5d77d442587ddee2 -->
<g id="edge10" class="edge">
<title>place_34a6f77fad4976edae0218850bdf09eb23bfdf10&#45;&gt;place_21c50805b553b7a40e48394a5d77d442587ddee2</title>
<path fill="none" stroke="#333333" d="M225.2559,-133.1417C233.3769,-139.0477 242.2265,-145.3541 250.5225,-151 267.2007,-162.3504 286.0707,-174.4315 301.9223,-184.3713"/>
<polygon fill="#333333" stroke="#333333" points="301.1419,-185.9473 306.3089,-187.1156 302.9983,-182.9801 301.1419,-185.9473"/>
<text text-anchor="middle" x="264.7828" y="-172.1491" font-family="Arial" font-size="9.00" fill="#000000">create</text>
</g>
<!-- place_34a6f77fad4976edae0218850bdf09eb23bfdf10&#45;&gt;place_4b376c0339d05a52537b37f4b6ddf747b5391c32 -->
<g id="edge11" class="edge">
<title>place_34a6f77fad4976edae0218850bdf09eb23bfdf10&#45;&gt;place_4b376c0339d05a52537b37f4b6ddf747b5391c32</title>
<path fill="none" stroke="#333333" d="M232.4932,-108.4777C238.5166,-108.1447 244.6913,-107.8502 250.5225,-107.6509 263.9083,-107.1932 278.4656,-106.9754 291.7543,-106.8859"/>
<polygon fill="#333333" stroke="#333333" points="291.9834,-108.6348 296.9736,-106.8568 291.9638,-105.1348 291.9834,-108.6348"/>
<text text-anchor="middle" x="264.7828" y="-111.1491" font-family="Arial" font-size="9.00" fill="#000000">decline</text>
</g>
</g>
</svg>
